<?xml version="1.0" encoding="UTF-8"?>
<svg version="1.1" xmlns="http://www.w3.org/2000/svg" width="252" height="43">
<path d="M0 0 C83.16 0 166.32 0 252 0 C252 14.19 252 28.38 252 43 C168.84 43 85.68 43 0 43 C0 28.81 0 14.62 0 0 Z " fill="#FDFDFC" transform="translate(0,0)"/>
<path d="M0 0 C1.7203989 0.97813002 3.39563007 2.03476574 5.0625 3.1015625 C5.0625 3.7615625 5.0625 4.4215625 5.0625 5.1015625 C6.3825 5.4315625 7.7025 5.7615625 9.0625 6.1015625 C9.59830497 7.97233918 10.11548887 9.8484542 10.625 11.7265625 C11.06005859 13.29277344 11.06005859 13.29277344 11.50390625 14.890625 C12.36878978 19.86219327 11.65927261 23.04726423 9.1875 27.4140625 C7.0625 30.1015625 7.0625 30.1015625 4.0625 31.1015625 C4.0625 31.7615625 4.0625 32.4215625 4.0625 33.1015625 C-1.97911866 34.79377513 -6.77536866 35.53939315 -12.9375 34.1015625 C-15.9375 32.1640625 -15.9375 32.1640625 -17.9375 30.1015625 C-17.9375 29.4415625 -17.9375 28.7815625 -17.9375 28.1015625 C-18.5975 28.1015625 -19.2575 28.1015625 -19.9375 28.1015625 C-23.1327302 22.22233893 -23.52371568 17.62986515 -21.9375 11.1015625 C-19.22212807 5.86477378 -15.73630384 2.53684652 -10.5 -0.1484375 C-6.71738278 -1.25554498 -3.67413383 -1.70373141 0 0 Z " fill="#284DAD" transform="translate(28.9375,4.8984375)"/>
<path d="M0 0 C3.86345353 0.05539001 6.19882712 0.7372694 9.25 3.25 C10.98523928 5.89417414 11.25 7.03465943 11.25 10.25 C11.91 10.25 12.57 10.25 13.25 10.25 C11.81179187 15.28372844 9.34754485 17.23955889 5.25 20.25 C1.2184488 21.5938504 -1.91019507 20.79519313 -5.75 19.25 C-8.29100069 17.09014942 -9.46339103 15.59842695 -10.16015625 12.3203125 C-10.46927472 8.11947171 -10.08926638 6.65885949 -7.3125 3.3125 C-6.466875 2.631875 -5.62125 1.95125 -4.75 1.25 C-3.75 0.25 -3.75 0.25 0 0 Z " fill="#FDFEFE" transform="translate(24.75,11.75)"/>
<path d="M0 0 C1.98 0.66 3.96 1.32 6 2 C6.33 1.34 6.66 0.68 7 0 C8.010625 0.804375 9.02125 1.60875 10.0625 2.4375 C13.69566344 5.0012242 16.45312432 6.08267047 21 6 C23.66980517 4.5167749 25.84116378 3.15883622 28 1 C29.66617115 0.95936168 31.33388095 0.957279 33 1 C31.06382979 7.70212766 31.06382979 7.70212766 28 10 C27.34 10 26.68 10 26 10 C26 10.66 26 11.32 26 12 C19.95838134 13.69221263 15.16213134 14.43783065 9 13 C6 11.0625 6 11.0625 4 9 C4 8.34 4 7.68 4 7 C3.34 7 2.68 7 2 7 C0.5393715 4.35261084 0 3.10551666 0 0 Z " fill="#A2A315" transform="translate(7,26)"/>
<path d="M0 0 C10.48828769 -0.37017486 10.48828769 -0.37017486 12.8359375 1.328125 C14.63238571 3.90825867 14.31245407 5.93795014 14 9 C13.62875 9.66 13.2575 10.32 12.875 11 C11.68057044 13.16259452 11.68057044 13.16259452 12.875 16.25 C13.24625 17.1575 13.6175 18.065 14 19 C12.68 19 11.36 19 10 19 C9.566875 18.030625 9.13375 17.06125 8.6875 16.0625 C7.2985139 12.72268235 7.2985139 12.72268235 4 12 C4 14.31 4 16.62 4 19 C2.68 19 1.36 19 0 19 C0 12.73 0 6.46 0 0 Z " fill="#5FA97C" transform="translate(168,11)"/>
<path d="M0 0 C2.475 0.495 2.475 0.495 5 1 C6.8125 4.0625 6.8125 4.0625 8 7 C9.74271938 4.702779 11.39911152 2.40133271 13 0 C14.32 0 15.64 0 17 0 C17 6.27 17 12.54 17 19 C16.01 19 15.02 19 14 19 C13.67 15.37 13.34 11.74 13 8 C11.68 10.31 10.36 12.62 9 15 C6.10067643 12.60490662 5.49831724 10.68754757 5 7 C4.34 7 3.68 7 3 7 C3 10.96 3 14.92 3 19 C2.01 19 1.02 19 0 19 C0 12.73 0 6.46 0 0 Z " fill="#9DAF53" transform="translate(74,11)"/>
<path d="M0 0 C1.65 0 3.3 0 5 0 C5.84334329 2.22582389 6.67478551 4.45496026 7.5 6.6875 C7.73847656 7.31333984 7.97695312 7.93917969 8.22265625 8.58398438 C9.5412725 12.18192299 10.29329235 15.16520253 10 19 C8.68 18.67 7.36 18.34 6 18 C6 17.01 6 16.02 6 15 C3.36 15 0.72 15 -2 15 C-2 16.32 -2 17.64 -2 19 C-3.32 19 -4.64 19 -6 19 C-4.70024676 12.28460827 -2.70071112 6.27980887 0 0 Z " fill="#63B66B" transform="translate(154,11)"/>
<path d="M0 0 C2.375 1.375 2.375 1.375 4 3 C4 3.66 4 4.32 4 5 C3.01 5.33 2.02 5.66 1 6 C0.34 5.34 -0.32 4.68 -1 4 C-3.60280568 4.32041397 -3.60280568 4.32041397 -6 5 C-6 7.97 -6 10.94 -6 14 C-2.52852158 14.74957157 -2.52852158 14.74957157 1 15 C1 14.01 1 13.02 1 12 C-0.32 12 -1.64 12 -3 12 C-3 10.68 -3 9.36 -3 8 C-0.36 8 2.28 8 5 8 C5 11.63 5 15.26 5 19 C-5.90486726 19.7715708 -5.90486726 19.7715708 -9.75 17.0625 C-11.44602934 12.90722811 -11.91871066 9.41779994 -11 5 C-7.87693521 0.49911251 -5.45237786 -0.92806432 0 0 Z " fill="#7DB45C" transform="translate(124,11)"/>
<path d="M0 0 C1.65 0 3.3 0 5 0 C7.92382423 6.12610791 9.47214176 12.40095271 11 19 C9.68 19 8.36 19 7 19 C7 17.68 7 16.36 7 15 C4.36 15 1.72 15 -1 15 C-1.33 16.32 -1.66 17.64 -2 19 C-2.99 19 -3.98 19 -5 19 C-3.9559635 12.31816637 -2.5957524 6.2534035 0 0 Z " fill="#8EB45D" transform="translate(100,11)"/>
<path d="M0 0 C3.96 0 7.92 0 12 0 C12 1.32 12 2.64 12 4 C9.36 4 6.72 4 4 4 C4 5.32 4 6.64 4 8 C6.31 8 8.62 8 11 8 C11 8.99 11 9.98 11 11 C8.69 11 6.38 11 4 11 C4 12.32 4 13.64 4 15 C6.64 15 9.28 15 12 15 C12 16.32 12 17.64 12 19 C8.04 19 4.08 19 0 19 C0 12.73 0 6.46 0 0 Z " fill="#6AB55E" transform="translate(133,11)"/>
<path d="M0 0 C4.29 0 8.58 0 13 0 C13 1.32 13 2.64 13 4 C10.36 4 7.72 4 5 4 C5 4.99 5 5.98 5 7 C7.31 7 9.62 7 12 7 C12 8.32 12 9.64 12 11 C9.36 11 6.72 11 4 11 C4 13.64 4 16.28 4 19 C2.68 19 1.36 19 0 19 C0 12.73 0 6.46 0 0 Z " fill="#739BB9" transform="translate(212,11)"/>
<path d="M0 0 C4.62 0 9.24 0 14 0 C14 1.32 14 2.64 14 4 C12.35 4 10.7 4 9 4 C9 8.95 9 13.9 9 19 C7.68 19 6.36 19 5 19 C5 14.05 5 9.1 5 4 C3.35 4 1.7 4 0 4 C0 2.68 0 1.36 0 0 Z " fill="#66A294" transform="translate(184,11)"/>
<path d="M0 0 C2.475 0.495 2.475 0.495 5 1 C5.66 2.98 6.32 4.96 7 7 C7.66 7 8.32 7 9 7 C9.66 5.02 10.32 3.04 11 1 C12.65 0.67 14.3 0.34 16 0 C15.01461122 2.65296979 14.05762201 4.91702431 12.4375 7.25 C10.44507706 11.06159171 10.26826514 14.7540104 10 19 C8.68 19 7.36 19 6 19 C5.98582031 18.443125 5.97164062 17.88625 5.95703125 17.3125 C5.60724155 11.71586475 4.31367331 8.19339458 1.05859375 3.62890625 C0 2 0 2 0 0 Z " fill="#6988C9" transform="translate(227,11)"/>
<path d="M0 0 C2.97 0 5.94 0 9 0 C9 0.99 9 1.98 9 3 C8.34 3 7.68 3 7 3 C7 7.29 7 11.58 7 16 C7.66 16 8.32 16 9 16 C9 16.99 9 17.98 9 19 C6.03 19 3.06 19 0 19 C0 18.01 0 17.02 0 16 C0.99 16 1.98 16 3 16 C3 11.71 3 7.42 3 3 C2.01 3 1.02 3 0 3 C0 2.01 0 1.02 0 0 Z " fill="#6699A4" transform="translate(200,11)"/>
<path d="M0 0 C2.97 0 5.94 0 9 0 C9 0.99 9 1.98 9 3 C8.34 3 7.68 3 7 3 C7 7.29 7 11.58 7 16 C7.66 16 8.32 16 9 16 C9 16.99 9 17.98 9 19 C6.03 19 3.06 19 0 19 C0 18.01 0 17.02 0 16 C0.99 16 1.98 16 3 16 C3 11.71 3 7.42 3 3 C2.01 3 1.02 3 0 3 C0 2.01 0 1.02 0 0 Z " fill="#B3B35B" transform="translate(61,11)"/>
<path d="M0 0 C3.3 0 6.6 0 10 0 C10.433125 0.94875 10.86625 1.8975 11.3125 2.875 C12.79302201 6.20041937 12.79302201 6.20041937 16 8 C15.67 9.32 15.34 10.64 15 12 C14.938125 11.38125 14.87625 10.7625 14.8125 10.125 C14.19356695 7.78883605 14.19356695 7.78883605 11.8125 6.90625 C8.87082237 5.9583761 6.26522725 5.59748631 3.1875 5.375 C2.21167969 5.30023437 1.23585938 5.22546875 0.23046875 5.1484375 C-0.50558594 5.09945313 -1.24164062 5.05046875 -2 5 C-1.34 3.35 -0.68 1.7 0 0 Z " fill="#3470C6" transform="translate(20,7)"/>
<path d="M0 0 C1.65 0 3.3 0 5 0 C3.5427465 5.04433905 2.40900775 7.5399953 -2.0625 10.25 C-6.45608759 11.37176704 -10.55422869 10.63880986 -15 10 C-15 9.67 -15 9.34 -15 9 C-14.40832031 8.89042969 -13.81664063 8.78085937 -13.20703125 8.66796875 C-6.67287625 7.37134083 -6.67287625 7.37134083 -1 4 C-0.12177688 1.91466367 -0.12177688 1.91466367 0 0 Z " fill="#4D6618" transform="translate(35,27)"/>
<path d="M0 0 C2.9375 0.8125 2.9375 0.8125 6 2 C6.33 2.99 6.66 3.98 7 5 C8.1446875 5.185625 8.1446875 5.185625 9.3125 5.375 C12 6 12 6 15 8 C11.7 8.66 8.4 9.32 5 10 C4.67 9.01 4.34 8.02 4 7 C3.34 7 2.68 7 2 7 C0.5393715 4.35261084 0 3.10551666 0 0 Z " fill="#A1A30D" transform="translate(7,26)"/>
<path d="M0 0 C2.64 0 5.28 0 8 0 C8 3.63 8 7.26 8 11 C7.01 11 6.02 11 5 11 C5 10.01 5 9.02 5 8 C4.34 7.67 3.68 7.34 3 7 C3.33 6.01 3.66 5.02 4 4 C2.68 4 1.36 4 0 4 C0 2.68 0 1.36 0 0 Z " fill="#83BC6D" transform="translate(121,19)"/>
<path d="M0 0 C0.66 0.33 1.32 0.66 2 1 C1.319375 1.763125 0.63875 2.52625 -0.0625 3.3125 C-0.701875 4.199375 -1.34125 5.08625 -2 6 C-1.67 6.99 -1.34 7.98 -1 9 C-0.87218214 11.67394964 -0.95608129 14.32095857 -1 17 C-1.66 17.33 -2.32 17.66 -3 18 C-3.99 17.67 -4.98 17.34 -6 17 C-5.72348824 10.00425241 -5.11247684 5.11247684 0 0 Z " fill="#3CC7C1" transform="translate(12,9)"/>
<path d="M0 0 C4.875 0.875 4.875 0.875 6 2 C6.23363881 3.84891946 6.41303635 5.70488031 6.5625 7.5625 C6.68818359 9.08037109 6.68818359 9.08037109 6.81640625 10.62890625 C6.87699219 11.41136719 6.93757812 12.19382812 7 13 C4 13 4 13 1 12 C1.020625 10.7625 1.04125 9.525 1.0625 8.25 C1.06766681 5.3359175 0.93015558 2.79046673 0 0 Z " fill="#16A084" transform="translate(9,15)"/>
<path d="M0 0 C1.32 0.33 2.64 0.66 4 1 C4 1.66 4 2.32 4 3 C4.99 3.33 5.98 3.66 7 4 C5.625 5.5 5.625 5.5 4 7 C3.34 7 2.68 7 2 7 C1.67 7.66 1.34 8.32 1 9 C-0.65 8.67 -2.3 8.34 -4 8 C-3.40072174 4.64404172 -2.15377564 2.62198774 0 0 Z " fill="#0678B1" transform="translate(14,9)"/>
<path d="M0 0 C0.33 0.99 0.66 1.98 1 3 C-0.11375 3.12375 -1.2275 3.2475 -2.375 3.375 C-6.03103677 3.6465813 -6.03103677 3.6465813 -8 6 C-11.125 5.625 -11.125 5.625 -14 5 C-10.05572558 0.43294541 -5.8595807 -0.27253864 0 0 Z " fill="#405BB1" transform="translate(27,4)"/>
<path d="M0 0 C2.31 0 4.62 0 7 0 C7 1.32 7 2.64 7 4 C2.545 4.495 2.545 4.495 -2 5 C-1.34 3.35 -0.68 1.7 0 0 Z " fill="#5D98EA" transform="translate(20,7)"/>
<path d="M0 0 C0.69867188 0.32613281 1.39734375 0.65226562 2.1171875 0.98828125 C5.30876295 2.1083599 7.75353615 2.23397381 11.125 2.1875 C12.15882812 2.18105469 13.19265625 2.17460938 14.2578125 2.16796875 C17.09166977 2.11257378 17.09166977 2.11257378 20 1 C20 1.66 20 2.32 20 3 C13.98617301 4.68442839 9.1323004 5.48021044 3 4 C1 1.9375 1 1.9375 0 0 Z " fill="#817B29" transform="translate(13,35)"/>
<path d="M0 0 C0.99 0.33 1.98 0.66 3 1 C1.625 3.0625 1.625 3.0625 -1 5 C-4.40060685 5.05863115 -7.65559323 4.58718592 -11 4 C-11 3.67 -11 3.34 -11 3 C-10.37351562 2.86722656 -9.74703125 2.73445313 -9.1015625 2.59765625 C-8.28429687 2.42105469 -7.46703125 2.24445312 -6.625 2.0625 C-5.81289063 1.88847656 -5.00078125 1.71445312 -4.1640625 1.53515625 C-1.970537 1.07669307 -1.970537 1.07669307 0 0 Z " fill="#3D3A01" transform="translate(31,33)"/>
<path d="M0 0 C0.51949219 0.33773438 1.03898438 0.67546875 1.57421875 1.0234375 C5.28848007 3.39891701 8.80400915 5.55762815 13 7 C8.96353928 8.32432194 6.55666572 7.57072473 2.70703125 6.03515625 C1 5 1 5 0 2.3125 C0 1.549375 0 0.78625 0 0 Z " fill="#516F12" transform="translate(13,26)"/>
<path d="M0 0 C1.98 0 3.96 0 6 0 C5.67 1.65 5.34 3.3 5 5 C3.35 5 1.7 5 0 5 C0 3.35 0 1.7 0 0 Z " fill="#F3F8F6" transform="translate(172,15)"/>
<path d="M0 0 C0.33 0 0.66 0 1 0 C1.33 2.97 1.66 5.94 2 9 C0.35 9.33 -1.3 9.66 -3 10 C-2.01 6.7 -1.02 3.4 0 0 Z " fill="#47AC8C" transform="translate(39,17)"/>
<path d="M0 0 C1.65 0.99 3.3 1.98 5 3 C4.67 5.31 4.34 7.62 4 10 C3.34 10 2.68 10 2 10 C1.855625 8.906875 1.71125 7.81375 1.5625 6.6875 C1.11711896 3.06877013 1.11711896 3.06877013 0 0 Z " fill="#196279" transform="translate(34,12)"/>
<path d="M0 0 C0.33 0.66 0.66 1.32 1 2 C1.99 2.33 2.98 2.66 4 3 C2.625 4.5 2.625 4.5 1 6 C0.34 6 -0.32 6 -1 6 C-1.33 6.66 -1.66 7.32 -2 8 C-2.125 5.125 -2.125 5.125 -2 2 C-1.34 1.34 -0.68 0.68 0 0 Z " fill="#1F8BC1" transform="translate(17,10)"/>
<path d="M0 0 C1.98 0 3.96 0 6 0 C6.33 0.99 6.66 1.98 7 3 C2.545 3.495 2.545 3.495 -2 4 C-2 3.34 -2 2.68 -2 2 C-1.34 2 -0.68 2 0 2 C0 1.34 0 0.68 0 0 Z " fill="#5F68B6" transform="translate(21,4)"/>
<path d="M0 0 C0.33 0 0.66 0 1 0 C1 3.96 1 7.92 1 12 C0.67 12 0.34 12 0 12 C-0.33 10.02 -0.66 8.04 -1 6 C-1.99 6.495 -1.99 6.495 -3 7 C-1.125 1.125 -1.125 1.125 0 0 Z " fill="#E7ECD7" transform="translate(87,18)"/>
<path d="M0 0 C0.66 0 1.32 0 2 0 C2.33 2.31 2.66 4.62 3 7 C1.68 7 0.36 7 -1 7 C-0.67 4.69 -0.34 2.38 0 0 Z " fill="#E2F1E3" transform="translate(155,15)"/>
<path d="M0 0 C1.98 1.65 3.96 3.3 6 5 C5.67 6.32 5.34 7.64 5 9 C4.938125 8.38125 4.87625 7.7625 4.8125 7.125 C4.18259554 4.72882071 4.18259554 4.72882071 1.5 3.875 C0.675 3.58625 -0.15 3.2975 -1 3 C-1.33 2.34 -1.66 1.68 -2 1 C-1.34 0.67 -0.68 0.34 0 0 Z " fill="#4DA9DE" transform="translate(30,10)"/>
<path d="M0 0 C2.31 0.33 4.62 0.66 7 1 C7.33 1.99 7.66 2.98 8 4 C5.69 3.67 3.38 3.34 1 3 C0.67 2.01 0.34 1.02 0 0 Z " fill="#9C8402" transform="translate(15,34)"/>
<path d="M0 0 C1.32 0.33 2.64 0.66 4 1 C4 2.98 4 4.96 4 7 C3.34 7 2.68 7 2 7 C0.5393715 4.35261084 0 3.10551666 0 0 Z " fill="#A8CA60" transform="translate(7,26)"/>
<path d="M0 0 C2.35953094 2.35953094 2.49141413 3.77895617 3 7 C1.68 7 0.36 7 -1 7 C-0.67 4.69 -0.34 2.38 0 0 Z " fill="#F0F5E9" transform="translate(102,15)"/>
</svg>
