<?xml version="1.0" encoding="UTF-8"?>
<svg version="1.1" xmlns="http://www.w3.org/2000/svg" width="17" height="17">
<path d="M0 0 C1.26714844 -0.01417969 2.53429688 -0.02835937 3.83984375 -0.04296875 C7.0625 0.1875 7.0625 0.1875 9.0625 2.1875 C9.36328125 4.90234375 9.36328125 4.90234375 9.375 8.125 C9.39175781 9.18589844 9.40851562 10.24679688 9.42578125 11.33984375 C9.0625 14.1875 9.0625 14.1875 7.921875 16.046875 C5.2411053 17.69138078 3.11940686 17.54927374 0 17.5 C-1.06347656 17.49613281 -2.12695312 17.49226563 -3.22265625 17.48828125 C-5.9375 17.1875 -5.9375 17.1875 -7.9375 15.1875 C-8.16796875 11.96484375 -8.16796875 11.96484375 -8.125 8.125 C-8.11855469 6.85527344 -8.11210937 5.58554688 -8.10546875 4.27734375 C-7.80142538 -1.31564007 -4.99819574 0.02537155 0 0 Z " fill="#447151" transform="translate(7.9375,-0.1875)"/>
</svg>
