 <svg  version="1.0" xmlns="http://www.w3.org/2000/svg"  width="17.000000pt" height="17.000000pt" viewBox="0 0 17.000000 17.000000"  preserveAspectRatio="xMidYMid meet">  <g transform="translate(0.000000,17.000000) scale(0.050000,-0.050000)" fill="#457252" stroke="none"> <path d="M31 309 c-36 -37 -42 -191 -10 -250 24 -46 233 -57 275 -15 42 42 31 251 -15 275 -59 32 -213 26 -250 -10z m149 -79 c0 -16 14 -30 30 -30 17 0 30 -9 30 -20 0 -11 -13 -20 -30 -20 -16 0 -30 -13 -30 -30 0 -16 -9 -30 -20 -30 -11 0 -20 14 -20 30 0 17 -13 30 -30 30 -16 0 -30 9 -30 20 0 11 14 20 30 20 17 0 30 14 30 30 0 17 9 30 20 30 11 0 20 -13 20 -30z"/> </g> </svg> 