<?xml version="1.0" standalone="no"?>
<!DOCTYPE svg PUBLIC "-//W3C//DTD SVG 20010904//EN"
 "http://www.w3.org/TR/2001/REC-SVG-20010904/DTD/svg10.dtd">
<svg version="1.0" xmlns="http://www.w3.org/2000/svg"
 width="60.000000pt" height="60.000000pt" viewBox="0 0 60.000000 60.000000"
 preserveAspectRatio="xMidYMid meet">
<metadata>
Created by potrace 1.10, written by Peter Selinger 2001-2011
</metadata>
<g transform="translate(0.000000,60.000000) scale(0.100000,-0.100000)"
fill="#6e9172" stroke="none">
<path d="M255 539 c-41 -11 -83 -57 -87 -94 -2 -22 -9 -31 -26 -33 -39 -6 -58
-63 -66 -193 -6 -108 -5 -117 14 -142 l21 -27 175 0 c228 0 220 -6 216 162 -3
135 -22 194 -64 200 -18 2 -24 11 -26 35 -3 33 -59 93 -87 93 -7 0 -19 2 -27
4 -7 2 -27 0 -43 -5z m97 -69 c45 -45 34 -55 -62 -55 -96 0 -107 10 -62 55 21
21 40 30 62 30 22 0 41 -9 62 -30z m-110 -137 c26 -23 23 -50 -7 -57 -34 -9
-45 -1 -45 33 0 44 20 53 52 24z m146 -21 c3 -31 2 -32 -33 -32 -39 0 -46 -22
-9 -29 30 -5 54 -32 54 -61 0 -43 -16 -50 -112 -50 -82 0 -89 2 -104 25 -29
44 -16 60 84 100 23 10 42 21 42 25 0 4 10 19 21 34 28 35 53 30 57 -12z"/>
</g>
</svg>
