<?xml version="1.0" encoding="UTF-8"?>
<svg version="1.1" xmlns="http://www.w3.org/2000/svg" width="20" height="20">
<path d="M0 0 C2.4375 0.1875 2.4375 0.1875 5 1 C6.3125 3.0625 6.3125 3.0625 7 5 C7.66 5 8.32 5 9 5 C10.17881287 8.68379022 10.21358801 12.15541573 10 16 C8 18 8 18 5.25 18.265625 C4.1775 18.26046875 3.105 18.2553125 2 18.25 C0.39125 18.25773437 0.39125 18.25773437 -1.25 18.265625 C-4 18 -4 18 -6 16 C-6.21358801 12.15541573 -6.17881287 8.68379022 -5 5 C-4.34 5 -3.68 5 -3 5 C-2.5359375 4.0409375 -2.5359375 4.0409375 -2.0625 3.0625 C-1 1 -1 1 0 0 Z M1 2 C0.67 2.66 0.34 3.32 0 4 C1.32 3.67 2.64 3.34 4 3 C3.01 2.67 2.02 2.34 1 2 Z " fill="#6F9173" transform="translate(8,1)"/>
</svg>
