<?xml version="1.0" standalone="no"?>
<!DOCTYPE svg PUBLIC "-//W3C//DTD SVG 20010904//EN"
 "http://www.w3.org/TR/2001/REC-SVG-20010904/DTD/svg10.dtd">
<svg version="1.0" xmlns="http://www.w3.org/2000/svg"
 width="60.000000pt" height="60.000000pt" viewBox="0 0 60.000000 60.000000"
 preserveAspectRatio="xMidYMid meet">
<metadata>
Created by potrace 1.10, written by Peter Selinger 2001-2011
</metadata>
<g transform="translate(0.000000,60.000000) scale(0.100000,-0.100000)"
fill="#6f9272" stroke="none">
<path d="M187 492 c-10 -10 -17 -25 -17 -34 0 -8 -19 -23 -42 -33 -78 -34 -78
-33 -78 -176 l0 -127 31 -27 32 -26 187 3 c239 4 229 -4 230 179 0 141 -1 144
-77 174 -29 11 -43 23 -43 35 0 39 -27 50 -119 50 -72 0 -91 -3 -104 -18z
m263 -137 c16 -20 6 -45 -19 -45 -25 0 -34 14 -26 40 8 24 28 26 45 5z m-85
-25 c40 -41 40 -109 1 -148 -37 -37 -112 -39 -150 -3 -31 29 -41 75 -27 115
17 44 50 65 102 66 37 0 50 -5 74 -30z"/>
<path d="M257 292 c-34 -37 -15 -82 33 -82 49 0 68 51 32 83 -24 22 -45 21
-65 -1z"/>
</g>
</svg>
