<?xml version="1.0" encoding="UTF-8"?>
<svg version="1.1" xmlns="http://www.w3.org/2000/svg" width="75" height="75">
<path d="M0 0 C6.81608726 5.55644075 12.34978259 13.61113924 13.75 22.375 C14.74732162 35.00358496 13.90360918 46.30967841 5.57421875 56.52734375 C-2.89543957 65.10581995 -11.74089241 68.6143452 -23.625 68.8125 C-34.21610677 68.73991082 -43.557301 65.97011719 -51.25 58.375 C-60.16015175 47.85133988 -62.31636737 37.93157752 -61.46142578 24.38427734 C-60.50120263 15.25883098 -55.88806791 7.30195017 -48.95703125 1.43359375 C-34.37086735 -9.39861169 -15.26867317 -10.23728182 0 0 Z " fill="#E7FFEF" transform="translate(61.25,6.625)"/>
<path d="M0 0 C6.81608726 5.55644075 12.34978259 13.61113924 13.75 22.375 C14.74732162 35.00358496 13.90360918 46.30967841 5.57421875 56.52734375 C-2.89543957 65.10581995 -11.74089241 68.6143452 -23.625 68.8125 C-34.21610677 68.73991082 -43.557301 65.97011719 -51.25 58.375 C-60.16015175 47.85133988 -62.31636737 37.93157752 -61.46142578 24.38427734 C-60.50120263 15.25883098 -55.88806791 7.30195017 -48.95703125 1.43359375 C-34.37086735 -9.39861169 -15.26867317 -10.23728182 0 0 Z M-51.5 10.125 C-57.41504545 18.67434164 -59.63775559 26.98525461 -58.25 37.375 C-55.71051745 46.90098523 -50.72775016 54.77880391 -42.4296875 60.2265625 C-33.25854533 65.38685849 -24.50847754 67.2692856 -14.046875 64.5390625 C-2.8867215 60.27531155 3.59008397 53.9444887 8.65625 43.20703125 C11.63477183 35.49478723 12.02073674 26.97354732 9.125 19.1875 C4.63664521 9.28487107 -2.07703798 2.57065176 -11.9375 -2 C-26.75059222 -7.41553909 -41.85482553 -1.83501634 -51.5 10.125 Z " fill="#C5FFDD" transform="translate(61.25,6.625)"/>
<path d="M0 0 C5.38493928 0.30970894 7.82467404 3.35430107 11.3125 7.0625 C12.13717773 7.91424805 12.13717773 7.91424805 12.97851562 8.78320312 C14.32827365 10.17990925 15.66541525 11.58878837 17 13 C20.78443167 9.83343473 24.29640808 6.70566215 27.625 3.0625 C29.35546875 1.28125 29.35546875 1.28125 31 0 C33.9375 0.0625 33.9375 0.0625 36 1 C35.69029106 6.38493928 32.64569893 8.82467404 28.9375 12.3125 C28.36966797 12.86228516 27.80183594 13.41207031 27.21679688 13.97851562 C25.82009075 15.32827365 24.41121163 16.66541525 23 18 C26.16656527 21.78443167 29.29433785 25.29640808 32.9375 28.625 C34.71875 30.35546875 34.71875 30.35546875 36 32 C35.9375 34.9375 35.9375 34.9375 35 37 C29.61506072 36.69029106 27.17532596 33.64569893 23.6875 29.9375 C23.13771484 29.36966797 22.58792969 28.80183594 22.02148438 28.21679688 C20.67172635 26.82009075 19.33458475 25.41121163 18 24 C14.21556833 27.16656527 10.70359192 30.29433785 7.375 33.9375 C5.64453125 35.71875 5.64453125 35.71875 4 37 C1.0625 36.9375 1.0625 36.9375 -1 36 C-0.69029106 30.61506072 2.35430107 28.17532596 6.0625 24.6875 C6.91424805 23.86282227 6.91424805 23.86282227 7.78320312 23.02148438 C9.17990925 21.67172635 10.58878837 20.33458475 12 19 C8.83343473 15.21556833 5.70566215 11.70359192 2.0625 8.375 C0.28125 6.64453125 0.28125 6.64453125 -1 5 C-0.9375 2.0625 -0.9375 2.0625 0 0 Z " fill="#7B7449" transform="translate(20,19)"/>
</svg>
