<?xml version="1.0" standalone="no"?>
<!DOCTYPE svg PUBLIC "-//W3C//DTD SVG 20010904//EN"
 "http://www.w3.org/TR/2001/REC-SVG-20010904/DTD/svg10.dtd">
<svg version="1.0" xmlns="http://www.w3.org/2000/svg"
 width="20.000000pt" height="20.000000pt" viewBox="0 0 20.000000 20.000000"
 preserveAspectRatio="xMidYMid meet">
<metadata>
Created by potrace 1.10, written by Peter Selinger 2001-2011
</metadata>
<g transform="translate(0.000000,20.000000) scale(0.050000,-0.050000)"
fill="#607b64" stroke="none">
<path d="M180 320 c0 -26 -13 -40 -38 -40 -81 0 -102 -22 -102 -108 0 -111 26
-132 160 -132 134 0 160 21 160 132 0 86 -21 108 -102 108 -25 0 -38 14 -38
40 0 22 -9 40 -20 40 -11 0 -20 -18 -20 -40z m40 -78 c0 -21 11 -43 25 -48 18
-7 16 -19 -10 -46 -34 -35 -36 -35 -70 0 -26 27 -28 39 -10 46 14 5 25 27 25
48 0 21 9 38 20 38 11 0 20 -17 20 -38z"/>
</g>
</svg>
