<?xml version="1.0" encoding="UTF-8"?>
<svg version="1.1" xmlns="http://www.w3.org/2000/svg" width="46" height="46">
<path d="M0 0 C5.56340585 3.36669624 9.53349183 8.25193794 11.5 14.4375 C12.30594257 22.2813829 12.59671889 30.02934467 7.5 36.4375 C3.04867668 41.14197914 -1.19064516 44.09747071 -7.76953125 44.7734375 C-16.04371997 44.8646634 -22.08428015 44.61560264 -28.2421875 38.7890625 C-34.17397269 32.28964236 -34.96296445 26.57688134 -34.80859375 17.88671875 C-34.22339005 11.3457711 -31.85547257 7.43687235 -27.0625 3.0625 C-19.84507341 -2.93248543 -8.52200107 -3.84066973 0 0 Z " fill="#ECFEDC" transform="translate(34.5,1.5625)"/>
<path d="M0 0 C5.56340585 3.36669624 9.53349183 8.25193794 11.5 14.4375 C12.30594257 22.2813829 12.59671889 30.02934467 7.5 36.4375 C3.04867668 41.14197914 -1.19064516 44.09747071 -7.76953125 44.7734375 C-16.04371997 44.8646634 -22.08428015 44.61560264 -28.2421875 38.7890625 C-34.17397269 32.28964236 -34.96296445 26.57688134 -34.80859375 17.88671875 C-34.22339005 11.3457711 -31.85547257 7.43687235 -27.0625 3.0625 C-19.84507341 -2.93248543 -8.52200107 -3.84066973 0 0 Z M-24.3125 9.75 C-27.94362851 14.21110074 -28.71376862 17.7885333 -28.375 23.4375 C-27.65086535 29.03691325 -25.70349483 32.55804853 -21.375 36.25 C-15.74568659 38.57515119 -10.53435958 39.03780283 -4.6875 37.3125 C-0.3210064 34.74397435 2.55147026 32.29144449 4.875 27.75 C6.01107494 21.7288028 5.53866361 16.47773209 2.75 11 C-1.60674329 6.03815348 -5.55122242 4.83522114 -12.00390625 4.375 C-17.12561147 4.50324301 -20.45027468 6.57439251 -24.3125 9.75 Z " fill="#D2FEAD" transform="translate(34.5,1.5625)"/>
<path d="M0 0 C-0.33 1.98 -0.66 3.96 -1 6 C0.98 6 2.96 6 5 6 C5 10.5309594 4.52869421 11.05001046 1.625 14.25 C0.99851562 14.95640625 0.37203125 15.6628125 -0.2734375 16.390625 C-2 18 -2 18 -4 18 C-4 16.02 -4 14.04 -4 12 C-5.65 12 -7.3 12 -9 12 C-9 7.4690406 -8.52869421 6.94998954 -5.625 3.75 C-4.99851562 3.04359375 -4.37203125 2.3371875 -3.7265625 1.609375 C-2 0 -2 0 0 0 Z " fill="#787DAC" transform="translate(25,14)"/>
<path d="M0 0 C0.33 1.32 0.66 2.64 1 4 C2.98 4 4.96 4 7 4 C7 8 7 8 4.5 10.75 C3.675 11.4925 2.85 12.235 2 13 C1.34 12.67 0.68 12.34 0 12 C0.33 10.68 0.66 9.36 1 8 C1.33 8.66 1.66 9.32 2 10 C2.99 8.68 3.98 7.36 5 6 C3.35 6 1.7 6 0 6 C0 4.02 0 2.04 0 0 Z " fill="#7173AC" transform="translate(23,16)"/>
<path d="M0 0 C0.33 0.99 0.66 1.98 1 3 C2.98 3 4.96 3 7 3 C5.25 6.875 5.25 6.875 3 8 C3 7.01 3 6.02 3 5 C1.02 5 -0.96 5 -3 5 C-1.125 1.125 -1.125 1.125 0 0 Z " fill="#D9F5C0" transform="translate(21,19)"/>
<path d="M0 0 C-0.62759865 2.92879371 -1.58622659 5.36095629 -3 8 C-3.33 7.34 -3.66 6.68 -4 6 C-5.65 7.65 -7.3 9.3 -9 11 C-9 7.25983417 -8.0658409 6.54723807 -5.625 3.8125 C-4.99851562 3.09707031 -4.37203125 2.38164062 -3.7265625 1.64453125 C-2 0 -2 0 0 0 Z " fill="#8496AC" transform="translate(25,14)"/>
</svg>
