<?xml version="1.0" encoding="UTF-8"?>
<svg version="1.1" xmlns="http://www.w3.org/2000/svg" width="20" height="20">
<path d="M0 0 C5.14082717 2.24087338 5.14082717 2.24087338 7.4375 5.0625 C7.92149258 9.09758422 7.86529003 13.02293983 7.4375 17.0625 C6.4375 18.0625 6.4375 18.0625 3.875 18.125 C3.070625 18.104375 2.26625 18.08375 1.4375 18.0625 C1.4375 16.4125 1.4375 14.7625 1.4375 13.0625 C0.1175 13.0625 -1.2025 13.0625 -2.5625 13.0625 C-2.5625 14.7125 -2.5625 16.3625 -2.5625 18.0625 C-4.22861905 18.105221 -5.89632885 18.10313832 -7.5625 18.0625 C-9.35947469 16.26552531 -8.90209993 13.74516844 -9 11.3125 C-8.96004544 5.72552041 -8.96004544 5.72552041 -7.3984375 3.12109375 C-5.05797331 1.01467598 -3.14739444 0.07676572 0 0 Z " fill="#6F9172" transform="translate(10.5625,0.9375)"/>
</svg>
