<?xml version="1.0" encoding="UTF-8"?>
<svg version="1.1" xmlns="http://www.w3.org/2000/svg" width="20" height="20">
<path d="M0 0 C1.051875 -0.00773438 2.10375 -0.01546875 3.1875 -0.0234375 C6 0.375 6 0.375 7.8515625 1.5234375 C9.49952553 4.18035749 9.39782139 6.27129124 9.375 9.375 C9.38273437 10.426875 9.39046875 11.47875 9.3984375 12.5625 C9 15.375 9 15.375 7.8515625 17.2265625 C5.19464251 18.87452553 3.10370876 18.77282139 0 18.75 C-1.051875 18.75773437 -2.10375 18.76546875 -3.1875 18.7734375 C-6 18.375 -6 18.375 -7.8515625 17.2265625 C-9.49952553 14.56964251 -9.39782139 12.47870876 -9.375 9.375 C-9.38273438 8.323125 -9.39046875 7.27125 -9.3984375 6.1875 C-9 3.375 -9 3.375 -7.8515625 1.5234375 C-5.19464251 -0.12452553 -3.10370876 -0.02282139 0 0 Z M-4 5.375 C-4 6.035 -4 6.695 -4 7.375 C-3.34 7.375 -2.68 7.375 -2 7.375 C-2 6.715 -2 6.055 -2 5.375 C-2.66 5.375 -3.32 5.375 -4 5.375 Z M3 10.375 C2.67 11.035 2.34 11.695 2 12.375 C-0.3140622 13.10575648 -2.64828869 13.77638258 -5 14.375 C-5 14.705 -5 15.035 -5 15.375 C-1.7 15.375 1.6 15.375 5 15.375 C5.33 14.055 5.66 12.735 6 11.375 C5.01 11.045 4.02 10.715 3 10.375 Z " fill="#709374" transform="translate(10,0.625)"/>
</svg>
