<?xml version="1.0" encoding="UTF-8"?>
<svg version="1.1" xmlns="http://www.w3.org/2000/svg" width="94" height="94">
<path d="M0 0 C1.19133545 -0.00630432 2.3826709 -0.01260864 3.61010742 -0.019104 C4.89763916 -0.01505554 6.1851709 -0.01100708 7.51171875 -0.00683594 C8.8454597 -0.00818331 10.17920018 -0.01012444 11.51293945 -0.01263428 C14.30717651 -0.01558218 17.10128563 -0.01129873 19.89550781 -0.00195312 C23.47683394 0.00944136 27.05786029 0.00288008 30.63917542 -0.00909805 C33.3929673 -0.01632574 36.14668815 -0.01402457 38.90048218 -0.00884247 C40.86310012 -0.0068598 42.82572083 -0.01293286 44.78833008 -0.019104 C46.57533325 -0.00964752 46.57533325 -0.00964752 48.3984375 0 C49.44862061 0.00159119 50.49880371 0.00318237 51.58081055 0.00482178 C54.19921875 0.25878906 54.19921875 0.25878906 57.19921875 2.25878906 C57.57421875 5.75878906 57.57421875 5.75878906 57.19921875 9.25878906 C53.75092967 11.55764845 52.45967645 11.51142473 48.3984375 11.51757812 C47.20710205 11.52388245 46.0157666 11.53018677 44.78833008 11.53668213 C43.50079834 11.53263367 42.2132666 11.52858521 40.88671875 11.52441406 C39.5529778 11.52576143 38.21923732 11.52770256 36.88549805 11.5302124 C34.09126099 11.5331603 31.29715187 11.52887686 28.50292969 11.51953125 C24.92160356 11.50813677 21.34057721 11.51469804 17.75926208 11.52667618 C15.0054702 11.53390386 12.25174935 11.5316027 9.49795532 11.52642059 C7.53533738 11.52443792 5.57271667 11.53051098 3.61010742 11.53668213 C2.41877197 11.53037781 1.22743652 11.52407349 0 11.51757812 C-1.05018311 11.51598694 -2.10036621 11.51439575 -3.18237305 11.51275635 C-5.80078125 11.25878906 -5.80078125 11.25878906 -8.80078125 9.25878906 C-9.17578125 5.75878906 -9.17578125 5.75878906 -8.80078125 2.25878906 C-5.35249217 -0.04007033 -4.06123895 0.00615339 0 0 Z " fill="#6E9173" transform="translate(22.80078125,17.7412109375)"/>
<path d="M0 0 C1.85202026 -0.00945648 1.85202026 -0.00945648 3.74145508 -0.019104 C5.09456525 -0.01552432 6.44767412 -0.01142238 7.80078125 -0.00683594 C9.18318754 -0.00818268 10.56559338 -0.01012329 11.94799805 -0.01263428 C14.84656276 -0.01558511 17.74500428 -0.0112893 20.64355469 -0.00195312 C24.36288762 0.00944152 28.08193193 0.00288181 31.80125427 -0.00909805 C34.65623152 -0.01631782 37.5111401 -0.01402822 40.36611938 -0.00884247 C41.73768142 -0.00750629 43.10924964 -0.0091526 44.48080444 -0.01380157 C46.39605595 -0.01886842 48.31132926 -0.00977925 50.2265625 0 C51.31751221 0.00159119 52.40846191 0.00318237 53.5324707 0.00482178 C56.11328125 0.25878906 56.11328125 0.25878906 58.11328125 2.25878906 C58.36328125 5.25878906 58.36328125 5.25878906 58.11328125 8.25878906 C55.4098621 10.96220821 54.0074408 10.51206359 50.2265625 10.51757812 C48.99188232 10.52388245 47.75720215 10.53018677 46.48510742 10.53668213 C45.13199725 10.53310245 43.77888838 10.52900051 42.42578125 10.52441406 C41.04337496 10.52576081 39.66096912 10.52770142 38.27856445 10.5302124 C35.37999974 10.53316324 32.48155822 10.52886742 29.58300781 10.51953125 C25.86367488 10.50813661 22.14463057 10.51469631 18.42530823 10.52667618 C15.57033098 10.53389594 12.7154224 10.53160634 9.86044312 10.52642059 C8.48888108 10.52508441 7.11731286 10.52673072 5.74575806 10.5313797 C3.83050655 10.53644654 1.91523324 10.52735737 0 10.51757812 C-1.09094971 10.51598694 -2.18189941 10.51439575 -3.3059082 10.51275635 C-5.88671875 10.25878906 -5.88671875 10.25878906 -7.88671875 8.25878906 C-8.13671875 5.25878906 -8.13671875 5.25878906 -7.88671875 2.25878906 C-5.1832996 -0.44463008 -3.7808783 0.00551454 0 0 Z " fill="#6E9273" transform="translate(21.88671875,41.7412109375)"/>
<path d="M0 0 C2.26719968 -0.00218537 4.53391191 -0.02034219 6.80102539 -0.03930664 C8.24047685 -0.04224088 9.67993062 -0.04422547 11.11938477 -0.04516602 C12.43156982 -0.0492749 13.74375488 -0.05338379 15.09570312 -0.05761719 C18.34204102 0.18530273 18.34204102 0.18530273 21.34204102 2.18530273 C21.71704102 5.68530273 21.71704102 5.68530273 21.34204102 9.18530273 C16.3803517 12.49309561 10.42054335 11.51807039 4.60864258 11.50097656 C2.35001504 11.4978139 0.09269438 11.52129077 -2.16577148 11.54663086 C-3.60066567 11.54890367 -5.03556337 11.54960743 -6.47045898 11.54858398 C-7.7762793 11.55156494 -9.08209961 11.5545459 -10.42749023 11.55761719 C-13.65795898 11.18530273 -13.65795898 11.18530273 -15.61889648 9.88916016 C-17.40736742 6.95642081 -16.42552028 4.37363425 -15.65795898 1.18530273 C-11.16639806 -1.06047773 -4.9993799 -0.00054159 0 0 Z " fill="#6F9273" transform="translate(58.657958984375,64.814697265625)"/>
</svg>
