<?xml version="1.0" encoding="UTF-8"?>
<svg version="1.1" xmlns="http://www.w3.org/2000/svg" width="20" height="20">
<path d="M0 0 C6.6 0 13.2 0 20 0 C19.01 2.31 18.02 4.62 17 7 C14.3125 7.9375 14.3125 7.9375 12 8 C12 7.34 12 6.68 12 6 C12.99 5.67 13.98 5.34 15 5 C14.02089415 3.80304724 14.02089415 3.80304724 12.1875 3.8671875 C11.465625 3.86976562 10.74375 3.87234375 10 3.875 C9.278125 3.87242188 8.55625 3.86984375 7.8125 3.8671875 C5.97910585 3.80304724 5.97910585 3.80304724 5 5 C5.99 5.33 6.98 5.66 8 6 C8 6.66 8 7.32 8 8 C5.6875 7.9375 5.6875 7.9375 3 7 C2.01 4.69 1.02 2.38 0 0 Z " fill="#6F9172" transform="translate(0,10)"/>
<path d="M0 0 C2.64 0 5.28 0 8 0 C8.33 1.32 8.66 2.64 9 4 C5.7 4 2.4 4 -1 4 C-0.67 2.68 -0.34 1.36 0 0 Z " fill="#6E9372" transform="translate(6,5)"/>
<path d="M0 0 C0 0.66 0 1.32 0 2 C-0.99 2.33 -1.98 2.66 -3 3 C-3.33 3.99 -3.66 4.98 -4 6 C-4.66 6 -5.32 6 -6 6 C-6 4.35 -6 2.7 -6 1 C-4 0 -4 0 0 0 Z " fill="#76977A" transform="translate(8,2)"/>
<path d="M0 0 C2.475 0.495 2.475 0.495 5 1 C5.33 2.65 5.66 4.3 6 6 C5.34 6 4.68 6 4 6 C3.67 5.01 3.34 4.02 3 3 C2.01 2.67 1.02 2.34 0 2 C0 1.34 0 0.68 0 0 Z " fill="#6F9173" transform="translate(12,2)"/>
</svg>
