<?xml version="1.0" encoding="UTF-8"?>
<svg version="1.1" xmlns="http://www.w3.org/2000/svg" width="24" height="24">
<path d="M0 0 C2.5 1.4375 2.5 1.4375 4 4 C4.17657911 6.36700098 4.12612619 8.61026162 3.9453125 10.9765625 C3.77418454 13.23268097 3.77418454 13.23268097 6 15 C6 15.99 6 16.98 6 18 C3.83125748 17.49396008 2.00032373 17.00016187 0 16 C-1.27875 16.061875 -2.5575 16.12375 -3.875 16.1875 C-6.87072783 16.20384033 -7.84667905 16.09199257 -10.5 14.5 C-12.62153384 10.96411027 -12.791013 8.02098277 -12 4 C-9.15467665 -0.74220558 -5.08013991 -0.98896166 0 0 Z M-9 5 C-9.33333333 8 -9.33333333 8 -9 11 C-7.11499729 13.31563087 -7.11499729 13.31563087 -4 13.25 C-0.88500271 13.31563087 -0.88500271 13.31563087 1 11 C1.33333333 8 1.33333333 8 1 5 C-0.88500271 2.68436913 -0.88500271 2.68436913 -4 2.75 C-7.11499729 2.68436913 -7.11499729 2.68436913 -9 5 Z " fill="#6F9172" transform="translate(15,3)"/>
</svg>
