<?xml version="1.0" encoding="UTF-8"?>
<svg version="1.1" xmlns="http://www.w3.org/2000/svg" width="63" height="63">
<path d="M0 0 C1.796875 0.09765625 1.796875 0.09765625 4 1 C5.703125 3.87109375 5.703125 3.87109375 7.25 7.4375 C7.77078125 8.61183594 8.2915625 9.78617188 8.828125 10.99609375 C10 14 10 14 10 16 C10.58007812 16.18175781 11.16015625 16.36351563 11.7578125 16.55078125 C16.39147293 18.0418106 20.69762355 19.68333576 25 22 C24.87890625 24.3515625 24.87890625 24.3515625 24 27 C21.33984375 28.2734375 21.33984375 28.2734375 17.9375 29.375 C9.17105784 33.00515667 6.54154137 39.59017669 3 48 C1.68 48 0.36 48 -1 48 C-2.00460531 45.87717331 -3.00355602 43.75166979 -4 41.625 C-4.556875 40.44164062 -5.11375 39.25828125 -5.6875 38.0390625 C-7 35 -7 35 -7 33 C-7.804375 32.773125 -8.60875 32.54625 -9.4375 32.3125 C-13.91285739 30.66368412 -17.88721318 28.39455588 -22 26 C-22 24.68 -22 23.36 -22 22 C-19.87717331 20.99539469 -17.75166979 19.99644398 -15.625 19 C-14.44164062 18.443125 -13.25828125 17.88625 -12.0390625 17.3125 C-9 16 -9 16 -7 16 C-6.82984375 15.43152344 -6.6596875 14.86304688 -6.484375 14.27734375 C-4.84932263 9.0677886 -2.86690828 4.64636859 0 0 Z " fill="#6F9273" transform="translate(22,7)"/>
<path d="M0 0 C0.99 0 1.98 0 3 0 C4.25664978 2.90600261 5 4.79604584 5 8 C5.763125 8.144375 6.52625 8.28875 7.3125 8.4375 C10 9 10 9 13 10 C13 11.32 13 12.64 13 14 C11.906875 14.350625 10.81375 14.70125 9.6875 15.0625 C6.53564713 16.37683541 5.37683541 17.53564713 4.0625 20.6875 C3.711875 21.780625 3.36125 22.87375 3 24 C1.68 24 0.36 24 -1 24 C-1.66 21.36 -2.32 18.72 -3 16 C-3.94875 15.855625 -4.8975 15.71125 -5.875 15.5625 C-9 15 -9 15 -11 14 C-10.67 12.68 -10.34 11.36 -10 10 C-8.329375 9.7215625 -8.329375 9.7215625 -6.625 9.4375 C-5.42875 8.963125 -4.2325 8.48875 -3 8 C-1.52917453 4.52042471 -1.52917453 4.52042471 -1 1 C-0.67 0.67 -0.34 0.34 0 0 Z " fill="#709374" transform="translate(50,39)"/>
<path d="M0 0 C1.32 0 2.64 0 4 0 C4.350625 1.093125 4.70125 2.18625 5.0625 3.3125 C6.37683541 6.46435287 7.53564713 7.62316459 10.6875 8.9375 C11.780625 9.288125 12.87375 9.63875 14 10 C14 11.32 14 12.64 14 14 C11.09399739 15.25664978 9.20395416 16 6 16 C5.855625 16.94875 5.71125 17.8975 5.5625 18.875 C5 22 5 22 4 24 C2.68 23.67 1.36 23.34 0 23 C-0.185625 21.88625 -0.37125 20.7725 -0.5625 19.625 C-1.036875 18.42875 -1.51125 17.2325 -2 16 C-5.51400668 14.45913678 -5.51400668 14.45913678 -9 14 C-9.33 12.68 -9.66 11.36 -10 10 C-7.09399739 8.74335022 -5.20395416 8 -2 8 C-1.34 5.36 -0.68 2.72 0 0 Z " fill="#709374" transform="translate(49,0)"/>
</svg>
